<?xml version="1.0" standalone="no"?>
<!DOCTYPE svg PUBLIC "-//W3C//DTD SVG 20010904//EN"
 "http://www.w3.org/TR/2001/REC-SVG-20010904/DTD/svg10.dtd">
<svg version="1.0" xmlns="http://www.w3.org/2000/svg"
 width="200.000000pt" height="200.000000pt" viewBox="0 0 200.000000 200.000000"
 preserveAspectRatio="xMidYMid meet">

<g transform="translate(0.000000,200.000000) scale(0.100000,-0.100000)"
fill="#000000" stroke="none">
<path d="M1010 1994 c-107 -21 -208 -74 -285 -148 -76 -75 -119 -165 -140
-298 -6 -36 -8 -38 -42 -38 l-36 0 6 60 c4 33 16 86 27 117 32 89 33 86 -40
101 -174 36 -371 -61 -450 -222 -109 -220 -24 -469 195 -577 l70 -34 720 0
720 0 50 27 c68 35 128 97 162 166 24 49 28 69 28 142 0 71 -5 95 -27 142 -55
119 -157 188 -291 196 l-77 5 -30 62 c-86 179 -255 292 -450 300 -47 2 -96 1
-110 -1z"/>
<path d="M174 782 c-28 -26 -75 -68 -105 -93 -49 -42 -54 -49 -54 -88 0 -35 6
-48 28 -67 40 -34 90 -32 126 4 25 24 29 38 35 112 4 47 12 105 17 129 5 24 8
45 7 47 -2 1 -26 -19 -54 -44z"/>
<path d="M1145 780 c-27 -28 -67 -63 -88 -77 -70 -49 -87 -120 -41 -167 29
-28 79 -35 116 -15 27 15 48 69 48 127 0 27 5 74 11 106 5 31 9 62 7 67 -2 5
-26 -13 -53 -41z"/>
<path d="M640 749 c-36 -36 -80 -77 -99 -91 l-35 -26 19 -61 c10 -34 23 -61
28 -61 6 0 34 7 63 16 48 16 52 20 58 53 3 20 6 53 6 75 0 21 7 65 16 98 8 33
14 61 12 62 -2 0 -32 -29 -68 -65z"/>
<path d="M1620 763 l0 -37 -28 27 c-28 27 -29 27 -45 9 -16 -17 -15 -20 9 -43
l26 -24 -39 -5 c-33 -4 -38 -9 -38 -30 0 -21 5 -26 38 -30 l39 -5 -26 -24
c-24 -23 -25 -26 -9 -43 16 -18 17 -18 45 9 l28 27 0 -37 c0 -33 3 -37 25 -37
22 0 25 4 25 35 0 42 8 44 40 10 22 -24 25 -24 42 -8 18 16 18 17 -9 45 l-27
28 37 0 c34 0 37 2 37 30 0 28 -3 30 -37 30 l-37 0 27 28 c27 28 27 29 9 45
-17 16 -20 16 -42 -8 -32 -34 -40 -32 -40 10 0 31 -3 35 -25 35 -22 0 -25 -4
-25 -37z"/>
<path d="M1310 407 c-47 -50 -119 -116 -161 -147 l-77 -57 32 -97 c17 -54 35
-98 39 -98 4 -1 50 12 102 27 l95 28 0 68 c0 85 16 199 40 292 10 39 18 72 17
73 -1 1 -40 -39 -87 -89z"/>
<path d="M245 405 c-27 -28 -83 -77 -123 -109 -93 -73 -115 -106 -109 -165 13
-123 185 -151 232 -37 8 19 17 71 21 117 3 46 12 120 20 163 8 44 13 80 12 81
-2 0 -25 -22 -53 -50z"/>
<path d="M690 358 l0 -52 -40 39 -40 39 -25 -24 c-32 -30 -32 -37 7 -77 l32
-33 -52 0 -52 0 0 -40 0 -40 50 0 c28 0 50 -3 50 -7 0 -4 -14 -22 -32 -40
l-32 -33 27 -27 27 -27 33 32 c18 18 36 32 40 32 4 0 7 -22 7 -50 l0 -50 40 0
40 0 0 52 0 52 38 -37 38 -37 29 30 29 30 -32 33 c-18 18 -32 36 -32 40 0 4
23 7 50 7 l50 0 0 40 0 40 -57 0 -57 0 37 38 37 38 -27 27 -27 27 -38 -37 -38
-37 0 52 0 52 -40 0 -40 0 0 -52z"/>
</g>
</svg>
