<?xml version="1.0" standalone="no"?>
<!DOCTYPE svg PUBLIC "-//W3C//DTD SVG 20010904//EN"
 "http://www.w3.org/TR/2001/REC-SVG-20010904/DTD/svg10.dtd">
<svg version="1.0" xmlns="http://www.w3.org/2000/svg"
 width="225.000000pt" height="225.000000pt" viewBox="0 0 225.000000 225.000000"
 preserveAspectRatio="xMidYMid meet">

<g transform="translate(0.000000,225.000000) scale(0.100000,-0.100000)"
fill="#000000" stroke="none">
<path d="M1040 2145 c-94 -27 -154 -60 -221 -122 -43 -41 -75 -62 -99 -67 -60
-11 -154 -61 -189 -101 -19 -22 -44 -62 -57 -90 -17 -36 -32 -54 -55 -64 -45
-20 -104 -81 -136 -143 -24 -47 -28 -64 -28 -143 0 -108 24 -170 88 -233 66
-64 132 -92 214 -92 61 0 72 3 93 25 30 32 31 117 0 150 l-20 21 73 72 c73 72
73 73 92 52 14 -16 30 -20 75 -20 50 0 59 3 88 33 22 23 32 43 32 65 l0 32
105 0 105 0 0 -29 c0 -21 11 -40 38 -65 32 -31 44 -36 86 -36 37 0 56 5 73 22
l23 21 72 -71 72 -71 -22 -24 c-32 -34 -30 -112 3 -149 23 -27 28 -28 123 -28
l99 0 54 39 c140 100 165 222 73 361 -22 34 -27 51 -25 91 4 84 -25 156 -90
221 -45 46 -68 60 -117 75 -47 14 -64 24 -78 48 -50 84 -159 171 -259 205 -81
28 -213 35 -285 15z"/>
<path d="M1062 1395 c3 -59 -9 -72 -35 -35 -14 19 -14 19 -37 -5 l-24 -25 47
-48 47 -48 0 -94 0 -95 -65 67 -65 68 0 70 0 71 -32 -3 c-29 -3 -34 -7 -38
-36 l-5 -33 -38 42 -38 41 -25 -23 -24 -23 41 -42 42 -43 -34 -3 c-30 -3 -34
-7 -37 -35 l-3 -33 73 0 74 0 64 -65 64 -65 -96 0 -95 0 -42 45 c-23 25 -45
45 -50 45 -4 0 -16 -9 -26 -20 -18 -20 -18 -21 5 -45 l23 -25 -61 0 -62 0 0
-35 0 -35 62 0 61 0 -23 -25 -23 -25 22 -24 22 -24 46 49 46 49 96 0 95 0 -64
-65 -64 -65 -73 0 -73 0 0 -35 c0 -34 1 -35 37 -35 l37 0 -44 -45 c-47 -47
-47 -49 2 -76 3 -2 24 13 46 33 l41 38 3 -33 c3 -28 7 -32 36 -35 l32 -3 0 70
0 70 62 65 c34 36 64 64 66 61 3 -2 4 -44 3 -92 l-2 -88 -47 -48 -46 -47 21
-22 c21 -20 23 -20 47 -5 14 10 27 17 28 17 2 0 1 -25 0 -55 l-4 -55 36 0 36
0 0 62 0 61 23 -21 c28 -27 39 -27 60 -4 16 17 14 21 -33 67 l-50 49 0 88 c0
48 4 88 8 88 4 0 33 -26 64 -57 l57 -58 3 -70 3 -70 33 -3 c31 -3 32 -2 32 34
l0 38 45 -44 c44 -43 45 -43 65 -25 11 10 20 21 20 25 0 4 -18 26 -41 48 l-41
42 36 0 c34 0 36 2 36 35 l0 35 -71 0 -71 0 -62 63 -61 62 89 3 90 3 51 -51
51 -50 24 25 24 25 -22 16 c-35 24 -26 33 36 36 56 3 57 3 60 35 l3 32 -61 3
-61 3 21 23 22 23 -23 25 -23 24 -51 -50 -51 -50 -87 0 c-48 0 -87 3 -87 6 0
3 26 33 59 65 l58 59 72 0 71 0 0 35 c0 32 -2 35 -30 35 -16 0 -30 3 -30 7 0
4 17 24 37 45 l37 38 -22 22 -22 22 -45 -44 -45 -44 0 37 c0 36 -1 37 -35 37
l-35 0 0 -73 0 -73 -65 -64 -65 -64 0 95 0 95 50 49 50 49 -22 23 -22 23 -28
-27 -28 -27 0 62 0 62 -36 0 -36 0 4 -55z"/>
<path d="M277 432 c-18 -19 -22 -59 -9 -79 23 -36 91 -32 112 6 33 62 -56 125
-103 73z"/>
<path d="M600 430 c-58 -58 30 -140 90 -85 24 22 26 53 4 83 -19 28 -67 29
-94 2z"/>
<path d="M926 434 c-34 -34 0 -125 41 -110 8 3 18 6 23 6 18 0 40 33 40 59 0
52 -68 82 -104 45z"/>
<path d="M1247 432 c-18 -19 -22 -59 -9 -78 22 -34 87 -37 107 -4 14 22 8 73
-10 86 -26 20 -69 17 -88 -4z"/>
<path d="M1566 428 c-34 -48 -7 -98 52 -98 33 0 62 29 62 62 0 51 -85 78 -114
36z"/>
<path d="M1884 425 c-35 -53 22 -120 80 -93 59 26 40 111 -26 116 -30 3 -40
-1 -54 -23z"/>
<path d="M440 200 c-39 -39 -11 -110 45 -110 27 0 65 35 65 61 0 27 -39 69
-66 69 -13 0 -33 -9 -44 -20z"/>
<path d="M765 195 c-14 -13 -25 -30 -25 -38 0 -26 41 -67 66 -67 31 0 64 33
64 65 0 30 -32 65 -60 65 -12 0 -32 -11 -45 -25z"/>
<path d="M1092 204 c-48 -33 -17 -114 44 -114 51 0 75 84 32 114 -12 9 -29 16
-38 16 -9 0 -26 -7 -38 -16z"/>
<path d="M1410 200 c-39 -39 -11 -110 44 -110 25 0 66 41 66 65 0 7 -9 24 -21
39 -25 31 -61 34 -89 6z"/>
<path d="M1739 207 c-34 -26 -31 -85 5 -109 20 -14 56 -8 76 12 54 54 -20 144
-81 97z"/>
</g>
</svg>
